# xmcd CD database file
#
# Track frame offsets:
#	150
#	18996
#	40459
#	60695
#	83101
#	105364
#	123873
#	146863
#	171292
#	192711
#	216957
#	235922
#	261396
#	281690
#	303674
#	325592
#
# Disc length: 4614 seconds
#
# Revision: 0
# Processed by: cddbd v1.5.1PL0 Copyright (c) Steve Scherf et al.
# Submitted via: CDex 1.51
#
DISCID=f0120410
DTITLE=鈴木祥子 - Shoko Suzuki Best Collection
DYEAR=2005
DGENRE=Rock
TTITLE0=Swallow
TTITLE1=ときめきは涙に負けない
TTITLE2=優しい雨
TTITLE3=愛はいつも -Remix-
TTITLE4=ラジオのように
TTITLE5=月とSNAPSHOTS
TTITLE6=Happiness (New Arrangement)
TTITLE7=ステイションワゴン
TTITLE8=Little Love
TTITLE9=Sweet Thing
TTITLE10=夏はどこへ行った
TTITLE11=３月のせい
TTITLE12=TRUE ROMANCE
TTITLE13=Angel
TTITLE14=風に折れない花
TTITLE15=GOIN' HOME
EXTD=YEAR: 2005
EXTT0=
EXTT1=
EXTT2=
EXTT3=
EXTT4=
EXTT5=
EXTT6=
EXTT7=
EXTT8=
EXTT9=
EXTT10=
EXTT11=
EXTT12=
EXTT13=
EXTT14=
EXTT15=
PLAYORDER=
